<?xml version="1.0" encoding="UTF-8" standalone="no"?>
<svg width="400px" height="354px" viewBox="0 0 400 354" version="1.1" xmlns="http://www.w3.org/2000/svg" xmlns:xlink="http://www.w3.org/1999/xlink">
    <!-- Generator: Sketch 46 (44423) - http://www.bohemiancoding.com/sketch -->
    <title>Shape</title>
    <desc>Created with Sketch.</desc>
    <defs></defs>
    <g id="Page-1" stroke="none" stroke-width="1" fill="none" fill-rule="evenodd">
        <g id="Vive" fill-rule="nonzero" fill="#1EB5DF">
            <path d="M166.608,1.42 C167.482,1.416 168.198,1.095 168.198,0.707 C168.198,0.246 179.27,0 200,0 C220.73,0 231.802,0.246 231.802,0.707 C231.802,1.095 232.518,1.416 233.392,1.42 C237.347,1.437 245.964,8.413 248.764,13.865 C249.339,14.985 250.847,17.555 252.113,19.577 C253.38,21.599 254.417,23.402 254.417,23.583 C254.417,23.765 256.325,27.145 258.657,31.095 C260.989,35.046 262.898,38.405 262.898,38.56 C262.898,38.715 264.011,40.582 265.371,42.709 C266.731,44.835 267.845,46.765 267.845,46.996 C267.845,47.228 268.958,49.158 270.318,51.284 C271.678,53.411 272.792,55.278 272.792,55.433 C272.792,55.588 274.7,58.947 277.032,62.898 C279.364,66.848 281.272,70.207 281.272,70.362 C281.272,70.517 282.385,72.384 283.746,74.511 C285.106,76.637 286.219,78.518 286.219,78.69 C286.219,78.862 289.24,84.158 292.933,90.459 C296.625,96.76 299.647,102.057 299.647,102.229 C299.647,102.401 300.76,104.281 302.12,106.408 C303.481,108.535 304.594,110.443 304.594,110.648 C304.594,110.854 305.707,112.762 307.067,114.889 C308.428,117.015 309.541,118.882 309.541,119.037 C309.541,119.193 311.449,122.551 313.781,126.502 C316.113,130.452 318.021,133.832 318.021,134.014 C318.021,134.195 319.134,136.084 320.495,138.21 C321.855,140.337 322.968,142.204 322.968,142.359 C322.968,142.514 324.876,145.873 327.208,149.823 C329.541,153.774 331.449,157.133 331.449,157.288 C331.449,157.443 332.562,159.31 333.922,161.436 C335.283,163.563 336.396,165.493 336.396,165.724 C336.396,165.956 337.509,167.886 338.869,170.012 C340.23,172.139 341.343,174.006 341.343,174.161 C341.343,174.316 343.251,177.675 345.583,181.625 C347.915,185.576 349.823,188.935 349.823,189.09 C349.823,189.245 350.882,191.048 352.177,193.096 C353.471,195.144 354.745,197.297 355.008,197.88 C355.271,198.463 356.286,200.212 357.264,201.767 C358.241,203.322 359.256,205.071 359.52,205.654 C359.784,206.237 361.844,209.84 364.099,213.662 C366.353,217.483 368.198,220.758 368.198,220.94 C368.198,221.121 369.311,223.009 370.671,225.136 C372.032,227.263 373.145,229.122 373.145,229.268 C373.145,229.414 376.166,234.688 379.859,240.989 C383.551,247.29 386.572,252.578 386.572,252.739 C386.572,252.9 387.41,254.358 388.433,255.979 C391.526,260.879 394.275,265.831 396.587,270.671 C397.51344,272.615285 398.448115,274.555636 399.391,276.492 C400.237,278.197 400.157,288.159 399.293,288.693 C398.905,288.933 398.587,289.699 398.587,290.396 C398.587,291.733 396.443,296.06 393.365,300.935 C392.35,302.543 391.519,304.039 391.519,304.26 C391.519,304.481 390.406,306.402 389.046,308.528 C387.686,310.655 386.572,312.554 386.572,312.749 C386.572,312.943 385.76,314.389 384.768,315.961 C383.018,318.733 382.512,319.608 378.615,326.608 C377.483825,328.629432 376.319333,330.632038 375.122,332.615 C374.042878,334.404756 373.023319,336.229756 372.065,338.087 C369.747,342.663 364.34,348.05 359.91,350.196 L354.603,352.765 C352.999,353.539 47.001,353.539 45.397,352.765 L40.204,350.256 C35.004,347.742 26.855,339.078 26.855,336.062 C26.855,335.842 26.07,334.418 25.111,332.898 C23.295,330.021 10.975,308.721 7.923,303.18 C6.96,301.431 5.926,299.682 5.627,299.293 C4.233,297.482 1.413,291.529 1.413,290.396 C1.413,289.699 1.095,288.933 0.707,288.693 C-0.157,288.159 -0.237,278.197 0.609,276.492 C1.5518847,274.555636 2.48655976,272.615285 3.413,270.671 C5.725,265.831 8.474,260.879 11.567,255.979 C12.59,254.358 13.428,252.892 13.428,252.722 C13.428,252.551 15.336,249.18 17.668,245.23 C20,241.279 21.908,237.92 21.908,237.765 C21.908,237.61 23.021,235.743 24.382,233.617 C25.742,231.49 26.855,229.56 26.855,229.329 C26.855,229.097 27.968,227.167 29.329,225.041 C30.689,222.914 31.802,221.047 31.802,220.892 C31.802,220.737 33.647,217.483 35.901,213.662 C38.156,209.84 40.216,206.237 40.48,205.654 C40.744,205.071 41.759,203.322 42.736,201.767 C43.714,200.212 44.736,198.471 45.008,197.899 C45.28,197.326 48.462,191.806 52.08,185.633 C55.697,179.46 58.657,174.29 58.657,174.144 C58.657,173.998 59.77,172.139 61.131,170.012 C62.491,167.886 63.604,165.965 63.604,165.744 C63.604,165.524 64.416,164.056 65.409,162.484 C67.159,159.712 67.664,158.838 71.562,151.837 C72.7319207,149.753036 73.9488996,147.695842 75.212,145.667 C76.213,144.082 77.032,142.625 77.032,142.431 C77.032,142.236 78.145,140.337 79.505,138.21 C80.866,136.084 81.979,134.195 81.979,134.014 C81.979,133.832 83.887,130.452 86.219,126.502 C88.551,122.551 90.459,119.193 90.459,119.037 C90.459,118.882 91.572,117.015 92.933,114.889 C94.293,112.762 95.406,110.832 95.406,110.601 C95.406,110.369 96.519,108.439 97.88,106.313 C99.24,104.186 100.353,102.319 100.353,102.164 C100.353,102.009 102.261,98.65 104.594,94.7 C106.926,90.749 108.834,87.39 108.834,87.235 C108.834,87.08 109.947,85.213 111.307,83.087 C112.668,80.96 113.781,79.039 113.781,78.818 C113.781,78.598 114.593,77.131 115.586,75.558 C117.335,72.786 117.841,71.912 121.739,64.911 C122.909,62.827 124.125,60.771 125.388,58.742 C126.389,57.156 127.208,55.678 127.208,55.457 C127.208,55.236 128.322,53.316 129.682,51.189 C131.042,49.062 132.155,47.203 132.155,47.057 C132.155,46.911 135.177,41.637 138.869,35.336 C142.562,29.035 145.583,23.739 145.583,23.566 C145.583,23.394 146.62,21.599 147.887,19.577 C149.153,17.555 150.661,14.985 151.236,13.865 C154.036,8.413 162.653,1.437 166.608,1.42 L166.608,1.42 Z M208.481,95.021 C199.45,93.317 183.527,95.173 179.894,98.352 C179.525,98.676 178.778,98.94 178.236,98.94 C173.834,98.94 154.934,115.676 142.722,130.389 C134.916,139.794 122.261,157.332 122.261,158.746 C122.261,158.966 121.67,159.99 120.948,161.022 C116.966,166.709 108.44,183.91 103.905,195.406 C100.828,203.206 96.575,216.488 94.739,224.028 C94.408,225.389 93.628,228.621 93.005,231.211 C88.994,247.895 93.966,266.592 105.745,279.112 C115.861,289.866 122.976,293.457 144.523,298.685 C153.487,300.86 158.534,301.792 173.145,303.973 C181.25,305.183 218.75,305.183 226.855,303.973 C241.466,301.792 246.513,300.86 255.477,298.685 C284.322,291.686 296.846,282.268 305.416,261.131 C308.256,254.128 308.991,240.51 307.013,231.55 C304.576,220.508 299.905,204.69 297.175,198.233 C296.541884,196.712872 295.935789,195.181631 295.357,193.64 C292.358,185.598 282.623,166.122 279.052,161.022 C278.33,159.99 277.739,158.946 277.739,158.702 C277.739,158.233 272.099,149.953 266.154,141.696 C252.691,122.995 227.704,98.94 221.741,98.94 C221.185,98.94 220.497,98.707 220.212,98.422 C219.391,97.601 214.239,96.107 208.481,95.021 Z" id="Shape"></path>
        </g>
    </g>
</svg>